Coordinates
version=1
nRows=43
nColumns=12
inDegrees=yes

Units are S.I. units (second, meters, Newtons, ...)
Angles are in degrees

endheader
time	SC_y	SC_z	SC_x	AC_y	AC_z	AC_x	GH_y	GH_z	GH_yy	EL_x	PS_y
       0.0              -59.56         -3.564          20.77          55.93         -5.101          0.195         -98.31          11.56          48.16          94.35          136.3
   0.03123              -59.56         -3.558          20.78          55.93         -5.103         0.1928         -98.31          11.55          48.17          94.35          136.3
   0.06246              -59.55         -3.551          20.79          55.93         -5.105         0.1905         -98.32          11.55          48.19          94.35          136.3
   0.09369              -59.54         -3.544           20.8          55.92         -5.106          0.188         -98.33          11.54           48.2          94.36          136.3
    0.1249              -59.54         -3.537           20.8          55.92         -5.108         0.1854         -98.33          11.54          48.22          94.36          136.3
    0.1562              -59.53          -3.53          20.81          55.92          -5.11         0.1826         -98.34          11.53          48.24          94.36          136.3
    0.1874              -59.52         -3.521          20.82          55.92         -5.112         0.1796         -98.35          11.53          48.26          94.36          136.3
    0.2186              -59.51         -3.513          20.83          55.92         -5.114         0.1764         -98.36          11.52          48.28          94.37          136.3
    0.2498               -59.5         -3.503          20.85          55.92         -5.117          0.173         -98.36          11.51           48.3          94.37          136.3
    0.2811              -59.49         -3.493          20.86          55.92         -5.119         0.1693         -98.37          11.51          48.33          94.38          136.3
    0.3123              -59.48         -3.482          20.87          55.92         -5.122         0.1654         -98.38           11.5          48.35          94.38          136.3
    0.3435              -59.47         -3.471          20.89          55.92         -5.125         0.1612          -98.4          11.49          48.38          94.38          136.3
    0.3748              -59.46         -3.458           20.9          55.92         -5.128         0.1566         -98.41          11.48          48.41          94.39          136.3
     0.406              -59.44         -3.444          20.92          55.91         -5.132         0.1517         -98.42          11.47          48.44          94.39          136.3
    0.4372              -59.43          -3.43          20.94          55.91         -5.136         0.1463         -98.43          11.46          48.48           94.4          136.3
    0.4685              -59.41         -3.414          20.96          55.91          -5.14         0.1406         -98.45          11.45          48.52           94.4          136.3
    0.4997              -59.39         -3.396          20.98          55.91         -5.144         0.1343         -98.47          11.44          48.56          94.41          136.3
    0.5309              -59.37         -3.377           21.0          55.91         -5.149         0.1274         -98.48          11.42           48.6          94.42          136.3
    0.5622              -59.35         -3.357          21.03          55.91         -5.154         0.1199          -98.5          11.41          48.65          94.43          136.3
    0.5934              -59.33         -3.334          21.05           55.9          -5.16         0.1117         -98.52          11.39          48.71          94.43          136.3
    0.6246               -59.3         -3.309          21.08           55.9         -5.166         0.1027         -98.55          11.37          48.77          94.44          136.3
    0.6558              -59.27         -3.282          21.12           55.9         -5.173        0.09285         -98.57          11.35          48.83          94.45          136.3
    0.6871              -59.24         -3.252          21.16           55.9         -5.181        0.08191          -98.6          11.33           48.9          94.47          136.3
    0.7183              -59.21         -3.219           21.2          55.89         -5.189         0.0698         -98.63          11.31          48.98          94.48          136.3
    0.7495              -59.17         -3.182          21.24          55.89         -5.199        0.05633         -98.67          11.28          49.07          94.49          136.4
    0.7808              -59.13          -3.14          21.29          55.89         -5.209         0.0413         -98.71          11.25          49.17          94.51          136.4
     0.812              -59.08         -3.094          21.35          55.88         -5.221        0.02447         -98.75          11.21          49.28          94.52          136.4
    0.8432              -59.02         -3.041          21.41          55.88         -5.234        0.00553          -98.8          11.18          49.41          94.54          136.4
    0.8745              -58.96         -2.983          21.49          55.87         -5.249       -0.01587         -98.86          11.13          49.55          94.57          136.4
    0.9057              -58.89         -2.916          21.57          55.87         -5.266       -0.04017         -98.92          11.08          49.71          94.59          136.4
    0.9369              -58.81         -2.839          21.66          55.86         -5.286        -0.0679         -98.99          11.03          49.89          94.62          136.4
    0.9682              -58.72         -2.751          21.77          55.85         -5.308       -0.09972         -99.08          10.96          50.11          94.65          136.5
    0.9994              -58.62          -2.65           21.9          55.84         -5.334        -0.1365         -99.17          10.89          50.35          94.69          136.5
     1.031               -58.5         -2.532          22.04          55.83         -5.364        -0.1792         -99.28           10.8          50.63          94.73          136.5
     1.062              -58.35         -2.395          22.21          55.82         -5.399        -0.2291         -99.41           10.7          50.96          94.79          136.6
     1.093              -58.18         -2.232          22.41           55.8          -5.44         -0.288         -99.57          10.58          51.35          94.85          136.6
     1.124              -57.98          -2.04          22.65          55.78         -5.489         -0.358         -99.75          10.44          51.81          94.92          136.6
     1.156              -57.74         -1.808          22.93          55.76         -5.548        -0.4419         -99.97          10.27          52.37          95.01          136.7
     1.187              -57.45         -1.529          23.28          55.73         -5.619        -0.5434         -100.2          10.07          53.04          95.11          136.8
     1.218               -57.1         -1.187           23.7           55.7         -5.705        -0.6673         -100.6           9.82          53.86          95.24          136.9
     1.249              -56.66        -0.7652          24.22          55.66         -5.813        -0.8203         -101.0          9.511          54.87           95.4          137.0
      1.28              -56.12        -0.2393          24.87          55.61         -5.946         -1.011         -101.5          9.127          56.13          95.59          137.1
     1.312              -55.43         0.4232          25.68          55.55         -6.115         -1.252         -102.1          8.642          57.72          95.84          137.3
